<svg width="18" height="18" viewBox="0 0 18 18" fill="none" xmlns="http://www.w3.org/2000/svg">
<path fill-rule="evenodd" clip-rule="evenodd" d="M14.4068 14.4059C11.9619 16.8511 8.34158 17.3794 5.37889 16.0092C4.94152 15.8331 4.58294 15.6908 4.24205 15.6908C3.29255 15.6964 2.11069 16.6171 1.49644 16.0036C0.882199 15.3893 1.80357 14.2065 1.80357 13.2512C1.80357 12.9103 1.66689 12.5581 1.49082 12.1199C0.12002 9.1577 0.649043 5.53615 3.09396 3.09177C6.21503 -0.0304545 11.2858 -0.0304543 14.4068 3.09096C17.5335 6.21801 17.5279 11.2845 14.4068 14.4059Z" stroke="#818189" stroke-width="1.5" stroke-linecap="round" stroke-linejoin="round"/>
<path d="M11.9027 9.08134H11.9099" stroke="#818189" stroke-width="2" stroke-linecap="round" stroke-linejoin="round"/>
<path d="M8.69629 9.08148H8.70503" stroke="#818189" stroke-width="2" stroke-linecap="round" stroke-linejoin="round"/>
<path d="M5.48331 9.08134H5.49051" stroke="#818189" stroke-width="2" stroke-linecap="round" stroke-linejoin="round"/>
</svg>
