<svg width="32" height="32" viewBox="0 0 32 32" fill="none" xmlns="http://www.w3.org/2000/svg">
<path d="M4 4H6.08798C7.38396 4 8.40395 5.11599 8.29595 6.39997L7.29996 18.3518C7.13196 20.3078 8.67993 21.9878 10.6479 21.9878H23.4278C25.1557 21.9878 26.6677 20.5718 26.7997 18.8558L27.4477 9.85593C27.5917 7.86396 26.0797 6.24397 24.0757 6.24397H8.58395" stroke="#818189" stroke-width="1.5" stroke-miterlimit="10" stroke-linecap="round" stroke-linejoin="round"/>
<path d="M12.3984 11.1992H26.7983" stroke="#818189" stroke-width="1.5" stroke-miterlimit="10" stroke-linecap="round" stroke-linejoin="round"/>
<path d="M23.9745 25.8542C23.9745 24.6709 23.0145 23.7109 21.8312 23.7109C20.648 23.7109 19.688 24.6709 19.688 25.8542C19.688 27.0374 20.648 27.9974 21.8312 27.9974C23.0145 27.9974 23.9745 27.0374 23.9745 25.8542Z" fill="#818189"/>
<path d="M14.5755 25.8542C14.5755 24.6709 13.6155 23.7109 12.4323 23.7109C11.2491 23.7109 10.2891 24.6709 10.2891 25.8542C10.2891 27.0374 11.2491 27.9974 12.4323 27.9974C13.6155 27.9974 14.5755 27.0374 14.5755 25.8542Z" fill="#818189"/>
</svg>
