<svg width="32" height="32" viewBox="0 0 32 32" fill="none" xmlns="http://www.w3.org/2000/svg">
<path d="M12.7 27H19.3C24.8 27 27 24.8 27 19.3V12.7C27 7.2 24.8 5 19.3 5H12.7C7.2 5 5 7.2 5 12.7V19.3C5 24.8 7.2 27 12.7 27Z" stroke="#818189" stroke-width="1.5" stroke-linecap="round" stroke-linejoin="round"/>
<path d="M12.8125 16.0018V14.3738C12.8125 12.2728 14.2975 11.4258 16.1125 12.4708L17.5205 13.2848L18.9285 14.0988C20.7435 15.1438 20.7435 16.8598 18.9285 17.9048L17.5205 18.7188L16.1125 19.5328C14.2975 20.5778 12.8125 19.7198 12.8125 17.6298V16.0018Z" stroke="#818189" stroke-width="1.5" stroke-miterlimit="10" stroke-linecap="round" stroke-linejoin="round"/>
</svg>
