<svg width="20" height="20" viewBox="0 0 20 20" fill="none" xmlns="http://www.w3.org/2000/svg">
<path fill-rule="evenodd" clip-rule="evenodd" d="M15.6571 15.6559C13.2122 18.1011 9.59182 18.6294 6.62913 17.2592C6.19177 17.0831 5.83319 16.9408 5.4923 16.9408C4.54279 16.9464 3.36093 17.8671 2.74669 17.2536C2.13244 16.6393 3.05381 15.4565 3.05381 14.5012C3.05381 14.1603 2.91713 13.8081 2.74106 13.3699C1.37026 10.4077 1.89929 6.78615 4.34421 4.34177C7.46528 1.21955 12.536 1.21955 15.6571 4.34096C18.7838 7.46801 18.7782 12.5345 15.6571 15.6559Z" stroke="#818189" stroke-width="1.5" stroke-linecap="round" stroke-linejoin="round"/>
<path d="M13.153 10.3313H13.1602" stroke="#818189" stroke-width="2" stroke-linecap="round" stroke-linejoin="round"/>
<path d="M9.94653 10.3315H9.95528" stroke="#818189" stroke-width="2" stroke-linecap="round" stroke-linejoin="round"/>
<path d="M6.73356 10.3313H6.74076" stroke="#818189" stroke-width="2" stroke-linecap="round" stroke-linejoin="round"/>
</svg>
