<svg width="18" height="4" viewBox="0 0 18 4" fill="none" xmlns="http://www.w3.org/2000/svg">
<path fill-rule="evenodd" clip-rule="evenodd" d="M2 1.50996e-07C0.895553 1.99273e-07 -1.3573e-07 0.894864 -8.74529e-08 1.99931C-3.91459e-08 3.10445 0.895553 4 2 4C3.10445 4 4 3.10445 4 1.99931C4 0.894864 3.10445 1.02719e-07 2 1.50996e-07Z" fill="#3C3C3C"/>
<path fill-rule="evenodd" clip-rule="evenodd" d="M9 1.50996e-07C7.89555 1.99273e-07 7 0.894864 7 1.99931C7 3.10445 7.89555 4 9 4C10.1044 4 11 3.10445 11 1.99931C11 0.894864 10.1044 1.02719e-07 9 1.50996e-07Z" fill="#3C3C3C"/>
<path fill-rule="evenodd" clip-rule="evenodd" d="M16 1.50996e-07C14.8956 1.99273e-07 14 0.894864 14 1.99931C14 3.10445 14.8956 4 16 4C17.1044 4 18 3.10445 18 1.99931C18 0.894864 17.1044 1.02719e-07 16 1.50996e-07Z" fill="#3C3C3C"/>
</svg>
