<svg width="20" height="20" viewBox="0 0 20 20" fill="none" xmlns="http://www.w3.org/2000/svg">
<path d="M10 4.25C13.7044 4.25 16.8765 6.6777 18.6162 8.32422C19.0491 8.73392 19.42 9.06731 19.6328 9.68848C19.7209 9.94564 19.75 10.2458 19.75 10.5C19.75 10.7542 19.7209 11.0544 19.6328 11.3115C19.42 11.9327 19.0491 12.2661 18.6162 12.6758C16.8765 14.3223 13.7044 16.75 10 16.75C6.29574 16.75 3.1235 14.3223 1.38379 12.6758C0.950756 12.2659 0.580007 11.9326 0.367188 11.3115C0.279115 11.0544 0.25 10.7542 0.25 10.5C0.250001 10.2458 0.279112 9.94564 0.367188 9.68848C0.580004 9.06739 0.950745 8.73408 1.38379 8.32422C3.1235 6.67769 6.29573 4.25003 10 4.25ZM10 5.75C6.90562 5.75003 4.10202 7.81741 2.41504 9.41406C1.94366 9.86021 1.86119 9.95576 1.78613 10.1748C1.77161 10.2175 1.75 10.336 1.75 10.5C1.75 10.664 1.77161 10.7825 1.78613 10.8252C1.86119 11.0442 1.94364 11.1398 2.41504 11.5859C4.10202 13.1826 6.90562 15.25 10 15.25C13.0944 15.25 15.898 13.1826 17.585 11.5859C18.0565 11.1396 18.1388 11.0442 18.2139 10.8252C18.2284 10.7825 18.25 10.664 18.25 10.5C18.25 10.336 18.2284 10.2175 18.2139 10.1748C18.1388 9.95584 18.0565 9.86037 17.585 9.41406C15.898 7.81737 13.0944 5.75 10 5.75ZM11.1758 10.5C11.1758 9.93606 10.6844 9.41711 10 9.41699C9.31553 9.41699 8.82422 9.936 8.82422 10.5C8.82422 11.064 9.31552 11.583 10 11.583C10.6844 11.5829 11.1758 11.0639 11.1758 10.5ZM12.6758 10.5C12.6758 11.961 11.4425 13.0829 10 13.083C8.55742 13.083 7.32422 11.961 7.32422 10.5C7.32422 9.03896 8.55742 7.91699 10 7.91699C11.4425 7.91711 12.6758 9.03904 12.6758 10.5Z" fill="#818189"/>
</svg>
